mtllib materials.mtl
v 0.1205895 -0.1374549 0.006922841
v 0.001793742 -0.1220244 0.2181265
v 0.01267606 0.1088514 0.2073798
v 0.1314718 0.09342086 -0.003823876
v -0.07098907 -0.1334543 -0.1011267
v -0.06010675 0.09742153 -0.1118734
v -0.1789025 0.112852 0.09933031
v -0.1897848 -0.1180238 0.110077
v 0.09930331 -0.1317614 0.01706254
v -0.009728074 -0.1158414 0.2039878
v 0.004415065 0.09023488 0.1946863
v 0.1134465 0.07431495 0.007761121
v -0.07012872 -0.1246213 -0.08237326
v -0.05598557 0.08145511 -0.0916748
v -0.1650169 0.09737504 0.09525049
v -0.1791601 -0.1087014 0.1045519
v 0.1103337 -0.3649236 0.01574337
v -0.008672893 -0.3494595 0.2268259
v 0.001870692 -0.1185786 0.2158557
v 0.1208773 -0.1340426 0.004773259
v -0.08115451 -0.3613211 -0.09248006
v -0.07061093 -0.1304402 -0.1034502
v -0.1896175 -0.114976 0.1076323
v -0.2001611 -0.345857 0.1186024
v 0.10597 -0.3407405 0.003155947
v 0.09653723 -0.3394019 0.02044678
v 0.105934 -0.1500713 0.01091564
v 0.1153668 -0.1514099 -0.006375313
v -0.07022732 -0.3368496 -0.09326684
v -0.06083053 -0.1475189 -0.102798
v -0.0702633 -0.1461803 -0.08550715
v -0.07966012 -0.335511 -0.07597589
v 0.08902988 -0.3592525 0.02585864
v -0.02019158 -0.3433087 0.2126708
v -0.006351054 -0.1372206 0.2031739
v 0.1028704 -0.1531644 0.01636171
v -0.08032425 -0.3524684 -0.07373476
v -0.06648371 -0.1463803 -0.08323169
v -0.1757052 -0.1304365 0.1035805
v -0.1895457 -0.3365245 0.1130774
v 0.07177067 -0.1928469 -0.03360295
v 0.06556535 -0.190668 -0.02235234
v 0.06684884 -0.1793852 -0.02382958
v 0.07305413 -0.1815641 -0.03508019
v -0.01245752 -0.1894344 -0.08072007
v -0.01117402 -0.1781516 -0.08219731
v -0.01737934 -0.1759727 -0.07094669
v -0.01866281 -0.1872555 -0.06946945
v 0.1162508 -0.1132526 -0.005636573
v 0.1068355 -0.1119172 0.01166415
v 0.1165096 0.07740855 0.002315521
v 0.1259249 0.07607317 -0.0149852
v -0.06002593 -0.1089985 -0.1018987
v -0.05035183 0.08032727 -0.1112473
v -0.05976722 0.08166265 -0.09394658
v -0.06944132 -0.1076632 -0.08459795
v 0.08224252 0.03472865 -0.0422157
v 0.07605049 0.03690565 -0.03095734
v 0.07734969 0.04818797 -0.03242433
v 0.08354172 0.04601097 -0.04368269
v -0.002022177 0.03831577 -0.0892545
v -0.0007229745 0.0495981 -0.09072149
v -0.006915003 0.0517751 -0.07946312
v -0.008214206 0.04049277 -0.07799613
v 0.08950433 0.2650454 -0.04934287
v 0.08326313 0.267081 -0.03808522
v 0.08444744 0.278386 -0.0394727
v 0.09068865 0.2763505 -0.05073035
v 0.005318463 0.2680694 -0.09656203
v 0.006502777 0.2793744 -0.0979495
v 0.000261575 0.28141 -0.08669186
v -0.0009227395 0.2701049 -0.08530438
v 0.1249754 0.1171834 -0.01368177
v 0.1155055 0.1183028 0.003604412
v 0.1232163 0.3077786 -0.004440904
v 0.1326862 0.3066592 -0.02172709
v -0.05110747 0.120245 -0.1103433
v -0.04339659 0.3097208 -0.1183887
v -0.05286652 0.3108401 -0.1011025
v -0.06057736 0.1213644 -0.09305716
v 0.1295375 0.09294367 -0.001274943
v 0.01008579 0.1056968 0.2097374
v 0.01857254 0.3367414 0.2005776
v 0.1380242 0.3239882 -0.01043463
v -0.06181565 0.09567142 -0.1097625
v -0.0533289 0.3267161 -0.1189224
v -0.1727806 0.3394692 0.09209001
v -0.1812673 0.1084247 0.1012497
v 0.1081687 0.09834492 0.008850098
v -0.001466751 0.1118544 0.1956116
v 0.01053718 0.318126 0.1877376
v 0.1201726 0.3046165 0.0009760857
v -0.06109254 0.1043854 -0.09094894
v -0.0490886 0.3106569 -0.09882295
v -0.158724 0.3241664 0.08793855
v -0.170728 0.1178949 0.09581256
vn 0.8708743 -0.01818578 0.4911692
vn -0.8708743 0.01818578 -0.4911692
vn -0.04703186 -0.997813 0.046446
vn 0.04703186 0.997813 -0.046446
vn 0.4892504 -0.06354923 -0.8698251
vn -0.4892504 0.06354923 0.8698251
vn 0.8618764 -0.03632059 0.5058162
vn -0.8618764 0.03632059 -0.5058162
vn -0.06840023 -0.9966433 0.04498444
vn 0.06840023 0.9966433 -0.04498444
vn 0.5024844 -0.07336896 -0.8614676
vn -0.5024844 0.07336896 0.8614676
vn 0.8704637 -0.01637609 0.4919602
vn -0.8704637 0.01637609 -0.4919602
vn -0.04556791 -0.9978355 0.04741154
vn 0.04556791 0.9978355 -0.04741154
vn 0.4901189 -0.06368762 -0.8693258
vn -0.4901189 0.06368762 0.8693258
vn 0.8770706 -0.01936812 0.4799709
vn -0.8770706 0.01936812 -0.4799709
vn -0.04950823 -0.9975106 0.05021621
vn 0.04950823 0.9975106 -0.05021621
vn 0.4778034 -0.06780552 -0.8758461
vn -0.4778034 0.06780552 0.8758461
vn 0.8614801 -0.0345097 0.5066175
vn -0.8614801 0.0345097 -0.5066175
vn -0.06693672 -0.9966995 0.04592983
vn 0.06693672 0.9966995 -0.04592983
vn 0.5033603 -0.07347893 -0.8609467
vn -0.5033603 0.07347893 0.8609467
vn 0.8721848 -0.03533685 0.4878986
vn -0.8721848 0.03533685 -0.4878986
vn -0.112083 -0.9852897 0.1290027
vn 0.112083 0.9852897 -0.1290027
vn 0.4761629 -0.1671993 -0.8633153
vn -0.4761629 0.1671993 0.8633153
vn 0.8774661 -0.02117566 0.4791711
vn -0.8774661 0.02117566 -0.4791711
vn -0.05096916 -0.9974849 0.04925448
vn 0.05096916 0.9974849 -0.04925448
vn 0.4769229 -0.06764193 -0.8763385
vn -0.4769229 0.06764193 0.8763385
vn 0.8725632 -0.03714498 0.487087
vn -0.8725632 0.03714498 -0.487087
vn -0.1134554 -0.9852492 0.1281089
vn 0.1134554 0.9852492 -0.1281089
vn 0.4751435 -0.1670458 -0.8639065
vn -0.4751435 0.1670458 0.8639065
vn 0.8717467 -0.03131252 0.4889552
vn -0.8717467 0.03131252 -0.4889552
vn -0.1034237 -0.9872291 0.1211702
vn 0.1034237 0.9872291 -0.1211702
vn 0.4789166 -0.1561993 -0.8638522
vn -0.4789166 0.1561993 0.8638522
vn 0.8765007 -0.01523942 0.4811594
vn -0.8765007 0.01523942 -0.4811594
vn -0.04062565 -0.9982749 0.04238782
vn 0.04062565 0.9982749 -0.04238782
vn 0.4796834 -0.05670022 -0.8756078
vn -0.4796834 0.05670022 0.8756078
vn 0.8698495 -0.01240014 0.4931614
vn -0.8698495 0.01240014 -0.4931614
vn -0.03667849 -0.9985427 0.03958686
vn 0.03667849 0.9985427 -0.03958686
vn 0.4919518 -0.05252302 -0.8690367
vn -0.4919518 0.05252302 0.8690367
vn 0.8610074 -0.03072708 0.5076634
vn -0.8610074 0.03072708 -0.5076634
vn -0.0580544 -0.9975868 0.03808101
vn 0.0580544 0.9975868 -0.03808101
vn 0.5052682 -0.06226012 -0.8607135
vn -0.5052682 0.06226012 0.8607135
vt 0.006198229 0.1526233
vt 0.0205445 0.1330335
vt 0.03921214 0.1467045
vt 0.02486586 0.1662943
vt -0.006198228 0.1526233
vt -0.02486586 0.1662943
vt -0.03921213 0.1467045
vt -0.0205445 0.1330335
vt -0.09660496 0.07389813
vt -0.1130087 0.05924047
vt -0.09683006 0.04113451
vt -0.08042629 0.05579216
vt 0.09660496 0.07389813
vt 0.08042629 0.05579216
vt 0.09683006 0.04113451
vt 0.1130087 0.05924047
vt -0.08806333 0.04269843
vt -0.1059591 0.05736532
vt -0.1199035 0.0403511
vt -0.1020077 0.02568421
vt 0.08806333 0.04269842
vt 0.1020077 0.02568421
vt 0.1199035 0.0403511
vt 0.1059591 0.05736532
vt 0.006904067 0.1506906
vt 0.01996165 0.1333608
vt 0.0364757 0.1458037
vt 0.02341812 0.1631335
vt -0.006904073 0.1506906
vt -0.02341813 0.1631335
vt -0.03647571 0.1458037
vt -0.01996165 0.1333607
vt -0.09678572 0.07007833
vt -0.1117107 0.05728368
vt -0.09758832 0.04080998
vt -0.08266337 0.05360464
vt 0.09678572 0.07007833
vt 0.08266338 0.05360464
vt 0.09758831 0.04080998
vt 0.1117107 0.05728368
vt -0.09065332 0.04257198
vt -0.1061841 0.05622242
vt -0.1191622 0.04145666
vt -0.1036313 0.02780622
vt 0.09065332 0.04257198
vt 0.1036313 0.02780622
vt 0.1191622 0.04145666
vt 0.1061841 0.05622242
vt -0.01204264 0.1393254
vt 0.002277684 0.1197166
vt 0.0209634 0.1333628
vt 0.00664309 0.1529716
vt 0.01204263 0.1393254
vt -0.006643089 0.1529716
vt -0.0209634 0.1333628
vt -0.00227768 0.1197166
vt -0.09671266 0.07400373
vt -0.1131201 0.05935014
vt -0.09694589 0.04124016
vt -0.08053847 0.05589374
vt 0.09671265 0.07400372
vt 0.08053848 0.05589374
vt 0.09694588 0.04124016
vt 0.11312 0.05935014
vt -0.07053852 0.02817963
vt -0.08845064 0.04282651
vt -0.102376 0.02579672
vt -0.08446392 0.01114984
vt 0.07053852 0.02817963
vt 0.08446392 0.01114983
vt 0.102376 0.02579672
vt 0.08845064 0.04282651
vt -0.01174133 0.1415072
vt -0.0105586 0.1399265
vt 0.004638462 0.1512976
vt 0.003455722 0.1528783
vt 0.01174133 0.1415072
vt -0.003455729 0.1528783
vt -0.004638463 0.1512976
vt 0.01055859 0.1399265
vt -0.09792273 0.07342999
vt -0.112709 0.0598305
vt -0.1113726 0.05837744
vt -0.0965863 0.07197694
vt 0.09792273 0.07342999
vt 0.0965863 0.07197693
vt 0.1113726 0.05837744
vt 0.112709 0.0598305
vt -0.07258472 0.03021898
vt -0.08730812 0.04219704
vt -0.09998603 0.02661339
vt -0.08526264 0.01463533
vt 0.07258472 0.03021898
vt 0.08526264 0.01463533
vt 0.09998603 0.02661339
vt 0.08730812 0.04219704
vt -0.01128557 0.1373181
vt 0.00174947 0.1199714
vt 0.01827969 0.1323928
vt 0.005244647 0.1497396
vt 0.01128557 0.1373181
vt -0.005244652 0.1497396
vt -0.01827969 0.1323928
vt -0.001749476 0.1199714
vt -0.09670466 0.07063272
vt -0.1116327 0.05784164
vt -0.09751426 0.04136457
vt -0.08258627 0.05415565
vt 0.09670466 0.07063272
vt 0.08258627 0.05415565
vt 0.09751426 0.04136457
vt 0.1116327 0.05784164
vt -0.07335368 0.02778433
vt -0.08889951 0.04141765
vt -0.1018613 0.0266376
vt -0.08631543 0.01300428
vt 0.07335368 0.02778432
vt 0.08631544 0.01300428
vt 0.1018613 0.0266376
vt 0.08889951 0.04141765
vt -0.001409657 0.1503429
vt -0.0005229215 0.1493879
vt 0.0003162345 0.1501671
vt -0.0005705004 0.151122
vt 0.001409662 0.1503429
vt 0.000570506 0.151122
vt -0.0003162295 0.1501671
vt 0.0005229272 0.1493879
vt -0.09885227 0.05892512
vt -0.1057821 0.0521992
vt -0.1048745 0.05126406
vt -0.09794463 0.05798997
vt 0.09885227 0.05892511
vt 0.09794463 0.05798997
vt 0.1048745 0.05126405
vt 0.1057821 0.0521992
vt -0.09383908 0.04840152
vt -0.09466653 0.04919313
vt -0.1013424 0.04221503
vt -0.1005149 0.04142342
vt 0.09383908 0.04840152
vt 0.1005149 0.04142342
vt 0.1013424 0.04221503
vt 0.09466653 0.04919312
vt 0.00639916 0.1549383
vt 0.007584005 0.1533591
vt 0.02276592 0.1647505
vt 0.02158107 0.1663296
vt -0.00639916 0.1549383
vt -0.02158108 0.1663296
vt -0.02276592 0.1647505
vt -0.007584005 0.1533591
vt -0.09778331 0.07321841
vt -0.1125662 0.05961521
vt -0.1112294 0.05816247
vt -0.0964465 0.07176568
vt 0.09778331 0.07321841
vt 0.0964465 0.07176568
vt 0.1112294 0.05816247
vt 0.1125662 0.05961521
vt -0.09017467 0.04465611
vt -0.1048847 0.05665053
vt -0.11758 0.04108097
vt -0.1028699 0.02908655
vt 0.09017467 0.04465612
vt 0.1028699 0.02908656
vt 0.11758 0.04108097
vt 0.1048847 0.05665053
vt 0.01663928 0.163894
vt 0.01752728 0.1629401
vt 0.01836541 0.1637204
vt 0.01747742 0.1646743
vt -0.01663928 0.163894
vt -0.01747741 0.1646743
vt -0.01836541 0.1637204
vt -0.01752727 0.1629401
vt -0.09739806 0.05681957
vt -0.1043255 0.05009123
vt -0.1034176 0.0491564
vt -0.09649009 0.05588473
vt 0.09739806 0.05681957
vt 0.09649009 0.05588473
vt 0.1034176 0.0491564
vt 0.1043255 0.05009123
vt -0.1103666 0.06384569
vt -0.1111933 0.0646381
vt -0.1178758 0.05766645
vt -0.1170492 0.05687405
vt 0.1103666 0.0638457
vt 0.1170492 0.05687406
vt 0.1178758 0.05766646
vt 0.1111933 0.06463811
vt 0.03628207 0.1772548
vt 0.0371553 0.1762875
vt 0.03800533 0.1770548
vt 0.0371321 0.1780221
vt -0.03628207 0.1772548
vt -0.0371321 0.1780221
vt -0.03800533 0.1770548
vt -0.03715529 0.1762875
vt -0.09621269 0.05631237
vt -0.1031768 0.04962192
vt -0.1022739 0.04868215
vt -0.09530985 0.0553726
vt 0.09621269 0.05631236
vt 0.09530984 0.05537259
vt 0.1022739 0.04868215
vt 0.1031768 0.04962192
vt -0.1269808 0.07764117
vt -0.1278153 0.07842532
vt -0.1344281 0.0713875
vt -0.1335936 0.07060336
vt 0.1269808 0.07764117
vt 0.1335936 0.07060336
vt 0.1344281 0.0713875
vt 0.1278153 0.07842531
vt 0.02602028 0.1683478
vt 0.02718039 0.1667504
vt 0.04253783 0.177904
vt 0.04137772 0.1795014
vt -0.02602028 0.1683478
vt -0.04137772 0.1795014
vt -0.04253783 0.177904
vt -0.02718039 0.1667504
vt -0.0978217 0.07444248
vt -0.1126629 0.06090295
vt -0.1113324 0.05944449
vt -0.09649116 0.07298402
vt 0.0978217 0.07444248
vt 0.09649116 0.07298402
vt 0.1113324 0.05944449
vt 0.1126629 0.06090295
vt -0.1076299 0.05744096
vt -0.1224793 0.06926238
vt -0.1349915 0.0535453
vt -0.120142 0.04172387
vt 0.1076299 0.05744095
vt 0.120142 0.04172387
vt 0.1349915 0.0535453
vt 0.1224793 0.06926238
vt 0.02586239 0.1659168
vt 0.03990376 0.1461074
vt 0.05878074 0.1594878
vt 0.04473936 0.1792972
vt -0.02586239 0.1659168
vt -0.04473936 0.1792972
vt -0.05878073 0.1594878
vt -0.03990376 0.1461074
vt -0.0966722 0.07521591
vt -0.1131383 0.06062837
vt -0.09703707 0.04245355
vt -0.08057092 0.05704109
vt 0.0966722 0.07521591
vt 0.08057093 0.05704109
vt 0.09703707 0.04245355
vt 0.1131384 0.06062837
vt -0.1054396 0.05556818
vt -0.1235066 0.07002363
vt -0.13725 0.05284663
vt -0.119183 0.03839117
vt 0.1054396 0.05556817
vt 0.119183 0.03839117
vt 0.13725 0.05284662
vt 0.1235066 0.07002363
vt 0.02643741 0.1640557
vt 0.03923 0.1465294
vt 0.05593133 0.1587198
vt 0.04313873 0.1762461
vt -0.02643741 0.1640557
vt -0.04313873 0.1762461
vt -0.05593132 0.1587198
vt -0.03923 0.1465294
vt -0.09705572 0.07095902
vt -0.112034 0.05822688
vt -0.09798069 0.04169428
vt -0.08300238 0.05442642
vt 0.09705572 0.07095902
vt 0.08300238 0.05442642
vt 0.09798069 0.04169428
vt 0.112034 0.05822688
vt -0.1078169 0.05568476
vt -0.1235042 0.06915506
vt -0.1363109 0.0542405
vt -0.1206236 0.04077021
vt 0.1078169 0.05568476
vt 0.1206236 0.04077021
vt 0.1363109 0.0542405
vt 0.1235042 0.06915506
o group12901892
g mesh12901892
usemtl mat15
f 4/4/1 3/3/1 2/2/1 1/1/1
f 8/8/2 7/7/2 6/6/2 5/5/2
f 2/12/3 8/11/3 5/10/3 1/9/3
f 6/16/4 7/15/4 3/14/4 4/13/4
f 5/20/5 6/19/5 4/18/5 1/17/5
f 3/24/6 7/23/6 8/22/6 2/21/6
usemtl mat5
f 12/28/7 11/27/7 10/26/7 9/25/7
f 16/32/8 15/31/8 14/30/8 13/29/8
f 10/36/9 16/35/9 13/34/9 9/33/9
f 14/40/10 15/39/10 11/38/10 12/37/10
f 13/44/11 14/43/11 12/42/11 9/41/11
f 11/48/12 15/47/12 16/46/12 10/45/12
f 20/52/13 19/51/13 18/50/13 17/49/13
f 24/56/14 23/55/14 22/54/14 21/53/14
f 18/60/15 24/59/15 21/58/15 17/57/15
f 22/64/16 23/63/16 19/62/16 20/61/16
f 21/68/17 22/67/17 20/66/17 17/65/17
f 19/72/18 23/71/18 24/70/18 18/69/18
f 36/100/25 35/99/25 34/98/25 33/97/25
f 40/104/26 39/103/26 38/102/26 37/101/26
f 34/108/27 40/107/27 37/106/27 33/105/27
f 38/112/28 39/111/28 35/110/28 36/109/28
f 37/116/29 38/115/29 36/114/29 33/113/29
f 35/120/30 39/119/30 40/118/30 34/117/30
f 84/244/61 83/243/61 82/242/61 81/241/61
f 88/248/62 87/247/62 86/246/62 85/245/62
f 82/252/63 88/251/63 85/250/63 81/249/63
f 86/256/64 87/255/64 83/254/64 84/253/64
f 85/260/65 86/259/65 84/258/65 81/257/65
f 83/264/66 87/263/66 88/262/66 82/261/66
f 92/268/67 91/267/67 90/266/67 89/265/67
f 96/272/68 95/271/68 94/270/68 93/269/68
f 90/276/69 96/275/69 93/274/69 89/273/69
f 94/280/70 95/279/70 91/278/70 92/277/70
f 93/284/71 94/283/71 92/282/71 89/281/71
f 91/288/72 95/287/72 96/286/72 90/285/72
usemtl mat21
f 28/76/19 27/75/19 26/74/19 25/73/19
f 32/80/20 31/79/20 30/78/20 29/77/20
f 26/84/21 32/83/21 29/82/21 25/81/21
f 30/88/22 31/87/22 27/86/22 28/85/22
f 29/92/23 30/91/23 28/90/23 25/89/23
f 27/96/24 31/95/24 32/94/24 26/93/24
f 52/148/37 51/147/37 50/146/37 49/145/37
f 56/152/38 55/151/38 54/150/38 53/149/38
f 50/156/39 56/155/39 53/154/39 49/153/39
f 54/160/40 55/159/40 51/158/40 52/157/40
f 53/164/41 54/163/41 52/162/41 49/161/41
f 51/168/42 55/167/42 56/166/42 50/165/42
f 76/220/55 75/219/55 74/218/55 73/217/55
f 80/224/56 79/223/56 78/222/56 77/221/56
f 74/228/57 80/227/57 77/226/57 73/225/57
f 78/232/58 79/231/58 75/230/58 76/229/58
f 77/236/59 78/235/59 76/234/59 73/233/59
f 75/240/60 79/239/60 80/238/60 74/237/60
usemtl mat23
f 44/124/31 43/123/31 42/122/31 41/121/31
f 48/128/32 47/127/32 46/126/32 45/125/32
f 42/132/33 48/131/33 45/130/33 41/129/33
f 46/136/34 47/135/34 43/134/34 44/133/34
f 45/140/35 46/139/35 44/138/35 41/137/35
f 43/144/36 47/143/36 48/142/36 42/141/36
f 60/172/43 59/171/43 58/170/43 57/169/43
f 64/176/44 63/175/44 62/174/44 61/173/44
f 58/180/45 64/179/45 61/178/45 57/177/45
f 62/184/46 63/183/46 59/182/46 60/181/46
f 61/188/47 62/187/47 60/186/47 57/185/47
f 59/192/48 63/191/48 64/190/48 58/189/48
f 68/196/49 67/195/49 66/194/49 65/193/49
f 72/200/50 71/199/50 70/198/50 69/197/50
f 66/204/51 72/203/51 69/202/51 65/201/51
f 70/208/52 71/207/52 67/206/52 68/205/52
f 69/212/53 70/211/53 68/210/53 65/209/53
f 67/216/54 71/215/54 72/214/54 66/213/54
